# xmcd CD database file
#
# Track frame offsets:
#	150
#	24215
#	30798
#	42866
#	81612
#	93274
#	105522
#	119201
#	133141
#	147749
#	159312
#	171276
#	187644
#
# Disc length: 2798 seconds
#
# Revision: 0
# Processed by: cddbd v1.5.2PL0 Copyright (c) Steve Scherf et al.
# Submitted via: CDex 1.70beta2
#
DISCID=a50aec0d
DTITLE=B.B. KING - The Life Of Riley The Soundtrack cd1
DYEAR=2012
DGENRE=Blues
TTITLE0=Walking Dr. Bill(Live On ''Gtk'' Australia, March 18, 1974)
TTITLE1=Nobody Loves Me But My Mother
TTITLE2=I'll Survive
TTITLE3=To Know You Is To Love You
TTITLE4=Paying the Cost to Be the Boss
TTITLE5=Miss Martha King
TTITLE6=3 O'Clock Blues
TTITLE7=You Know I Love You
TTITLE8=Sweet Little Angel
TTITLE9=Catfish Blues (Fishin' After Me)
TTITLE10=Every Day I Have The Blues(Recorded Live At The Regal Theatre)
TTITLE11=How Blue Can You Get(Recorded Live At The Regal Theatre)
TTITLE12=Chains And Things
EXTD=YEAR: 2012
EXTT0=
EXTT1=
EXTT2=
EXTT3=
EXTT4=
EXTT5=
EXTT6=
EXTT7=
EXTT8=
EXTT9=
EXTT10=
EXTT11=
EXTT12=
PLAYORDER=
